<svg width="51" height="49" viewBox="0 0 51 49" fill="none" xmlns="http://www.w3.org/2000/svg">
<path d="M14.79 0H36.21C44.37 0 51 6.30573 51 14.0666V34.439C51 38.1697 49.4418 41.7476 46.6681 44.3856C43.8944 47.0236 40.1326 48.5056 36.21 48.5056H14.79C6.63 48.5056 0 42.1999 0 34.439V14.0666C0 10.3359 1.55823 6.75802 4.33189 4.12002C7.10555 1.48201 10.8674 0 14.79 0ZM14.28 4.85056C11.8453 4.85056 9.51034 5.77043 7.78876 7.40781C6.06718 9.04519 5.1 11.266 5.1 13.5816V34.924C5.1 39.7503 9.2055 43.655 14.28 43.655H36.72C39.1547 43.655 41.4897 42.7352 43.2112 41.0978C44.9328 39.4604 45.9 37.2396 45.9 34.924V13.5816C45.9 8.75526 41.7945 4.85056 36.72 4.85056H14.28ZM38.8875 8.48848C39.7329 8.48848 40.5436 8.80788 41.1414 9.37641C41.7392 9.94495 42.075 10.716 42.075 11.5201C42.075 12.3241 41.7392 13.0952 41.1414 13.6637C40.5436 14.2323 39.7329 14.5517 38.8875 14.5517C38.0421 14.5517 37.2314 14.2323 36.6336 13.6637C36.0358 13.0952 35.7 12.3241 35.7 11.5201C35.7 10.716 36.0358 9.94495 36.6336 9.37641C37.2314 8.80788 38.0421 8.48848 38.8875 8.48848ZM25.5 12.1264C28.8815 12.1264 32.1245 13.404 34.5156 15.6781C36.9067 17.9523 38.25 21.0367 38.25 24.2528C38.25 27.4689 36.9067 30.5533 34.5156 32.8274C32.1245 35.1016 28.8815 36.3792 25.5 36.3792C22.1185 36.3792 18.8755 35.1016 16.4844 32.8274C14.0933 30.5533 12.75 27.4689 12.75 24.2528C12.75 21.0367 14.0933 17.9523 16.4844 15.6781C18.8755 13.404 22.1185 12.1264 25.5 12.1264ZM25.5 16.977C23.4711 16.977 21.5253 17.7435 20.0906 19.108C18.656 20.4725 17.85 22.3231 17.85 24.2528C17.85 26.1825 18.656 28.0331 20.0906 29.3976C21.5253 30.7621 23.4711 31.5286 25.5 31.5286C27.5289 31.5286 29.4747 30.7621 30.9094 29.3976C32.344 28.0331 33.15 26.1825 33.15 24.2528C33.15 22.3231 32.344 20.4725 30.9094 19.108C29.4747 17.7435 27.5289 16.977 25.5 16.977Z" fill="white"/>
</svg>
