<svg width="460" height="92" viewBox="0 0 460 92" fill="none" xmlns="http://www.w3.org/2000/svg">
<g clip-path="url(#clip0_77_178)">
<path d="M276.469 93C276.003 91.5345 275.555 89.8534 276.126 88.6592C276.811 87.2265 278.294 86.1242 279.583 85.0619C279.98 84.7347 280.871 85.006 281.536 85.006C339.734 85.0058 397.932 85.0042 456.13 85.0176C457.452 85.0179 458.773 85.1904 460.547 85.1413C461 87.6606 461 90.3212 461 93C399.646 93 338.292 93 276.469 93Z" fill="#0C73BA"/>
<path d="M4.46864 93C3.85206 92.0094 3.30532 90.8509 3.6372 90.0622C4.38471 88.2857 5.45092 86.6002 6.64995 85.0855C6.9736 84.6766 8.23698 85.006 9.06901 85.006C66.9843 85.0051 124.9 85.0012 182.815 85.0115C188.637 85.0125 189.578 86.2814 188.701 92.6485C127.646 93 66.2915 93 4.46864 93Z" fill="#F4BB46"/>
<path d="M213.469 93C211.17 86.6291 212.446 85.0107 219.318 85.0064C226.471 85.002 233.623 84.9846 240.775 85.0122C246.576 85.0346 247.625 86.6624 245.781 92.6569C235.312 93 224.625 93 213.469 93Z" fill="#D90A3D"/>
<path d="M142.528 65.3524C142.387 57.0536 141.692 48.716 142.27 40.4676C142.783 33.1551 146.281 26.8822 153.014 23.0847C160.139 19.0663 167.52 18.6195 174.327 23.3754C177.123 25.3295 178.635 25.5245 181.513 23.6867C195.361 14.844 212.123 23.2032 212.998 39.5499C213.56 50.0664 213.103 60.6374 213.103 71.5303C209.551 71.5303 206.161 71.5303 202.118 71.5303C202.118 61.5121 202.165 51.4217 202.102 41.332C202.059 34.5053 199.175 31.7981 192.35 31.934C187.933 32.0221 184.476 35.8401 184.581 40.2868C184.706 45.5947 184.675 50.9066 184.691 56.2169C184.706 61.2828 184.694 66.3487 184.694 71.6482C180.084 71.6482 176.483 71.6482 172.28 71.6482C172.28 61.6271 172.545 51.6793 172.117 41.7614C171.99 38.8184 170.492 35.4756 168.58 33.1868C166.277 30.4295 162.666 30.6076 159.437 32.2899C155.849 34.1588 153.515 36.9409 153.501 41.1982C153.478 48.8595 153.493 56.5209 153.171 64.4524C149.216 61.7716 145.821 62.7345 142.528 65.3524Z" fill="#F6F6F6"/>
<path d="M65.2353 65.1527C65.1683 56.662 64.826 48.1619 65.113 39.6831C65.3899 31.503 69.9573 25.8301 77.1313 22.2291C84.1217 18.7203 90.9806 19.438 97.2709 23.7891C99.6234 25.4164 101.179 25.4461 103.436 23.8987C110.477 19.0703 117.919 18.7139 125.316 22.9411C132.57 27.0864 135.842 33.4451 135.588 41.9217C135.296 51.6618 135.52 61.4173 135.52 71.519C131.964 71.519 128.572 71.519 124.527 71.519C124.527 61.2015 124.491 50.7783 124.544 40.3556C124.566 36.1977 122.65 33.3554 118.871 31.9464C112.333 29.5088 106.539 33.984 106.455 41.5836C106.346 51.4802 106.429 61.379 106.429 71.574C102.539 71.574 98.9491 71.574 94.7371 71.574C94.7371 61.7237 94.7696 51.7872 94.7071 41.8513C94.6958 40.0576 94.6845 38.0968 93.9948 36.5076C92.3063 32.6171 89.145 30.597 84.8282 31.2209C79.9129 31.9313 76.1146 36.152 76.0126 41.1442C75.8563 48.8016 75.9725 56.4646 75.6423 64.4079C71.8256 62.0707 68.4894 62.7167 65.2353 65.1527Z" fill="#F7F7F7"/>
<path d="M335.998 71.8672C328.894 71.6185 322.249 71.7465 315.693 71.0393C303.277 69.6998 295.353 57.6913 294.557 49.0751C293.285 35.2941 302.826 24.2285 313.937 21.0323C325.285 17.7678 338.861 23.4813 344.023 33.7298C344.698 35.0704 344.315 37.5916 343.451 38.9475C339.817 44.6517 335.807 50.1158 331.952 55.6797C330.851 57.2686 329.808 58.8978 328.226 61.2801C336.736 61.2801 344.405 61.2801 352.415 61.2801C352.415 64.9966 352.415 68.1824 352.415 71.8667C347.044 71.8667 341.771 71.8667 335.998 71.8672ZM308.366 38.0174C303.587 47.2883 306.726 57.1423 315.712 60.0771C321.263 52.0132 326.875 43.8619 332.445 35.7716C325.187 27.8735 313.207 30.3766 308.366 38.0174Z" fill="#F8F8F8"/>
<path d="M51.8346 30.2019C53.314 32.4243 54.6117 34.3377 55.7087 35.955C49.9809 44.1871 44.3709 52.2501 38.0744 61.2995C46.8988 61.2995 54.689 61.2995 62.7102 61.2995C62.7102 65.1045 62.7102 68.1812 62.7102 71.0415C49.5395 71.0415 36.4966 72.3517 23.843 70.6922C9.71118 68.8389 1.72372 51.8668 6.53786 37.5481C11.1799 23.7411 27.1619 16.217 40.2878 22.1058C44.4108 23.9556 47.8829 27.2562 51.8346 30.2019ZM18.6502 37.3494C14.6316 45.3602 15.7717 53.3016 21.7034 58.4807C23.4389 59.996 24.9336 61.1738 26.8395 58.3219C31.9355 50.6962 37.2897 43.243 42.4742 35.8174C34.6457 28.2769 27.0193 28.7309 18.6502 37.3494Z" fill="#F8F8F8"/>
<path d="M380.192 31.0008C372.017 30.9045 366.016 39.3299 366.148 47.0425C366.287 55.1558 366.179 63.2734 366.179 71.6317C362.426 71.6317 359.039 71.6317 356.041 71.6317C356.041 60.3509 354.902 49.1731 356.377 38.3515C357.724 28.4674 370.767 17.7656 385.626 20.4793C399.549 23.022 407.621 33.2266 407.609 47.5115C407.602 55.4629 407.608 63.4143 407.608 71.6231C403.818 71.6231 400.425 71.6231 396.656 71.6231C396.656 63.3944 396.665 55.2685 396.653 47.1427C396.638 37.1914 390.514 31.0375 380.192 31.0008Z" fill="#F6F6F5"/>
<path d="M277.968 55.9222C277.714 50.7212 277.933 45.889 277.106 41.243C275.423 31.7831 261.295 27.2037 253.825 33.4921C249.805 36.8756 247.615 41.1093 247.702 46.5317C247.833 54.815 247.736 63.102 247.736 71.6328C244.034 71.6328 240.774 71.6328 237.49 71.6328C237.49 60.8086 236.184 49.7334 237.832 39.1171C239.747 26.783 253.952 18.348 266.184 20.1779C279.429 22.1595 288.989 33.0023 289.009 46.0878C289.023 54.5352 289.012 62.9827 289.012 71.6221C285.165 71.6221 281.761 71.6221 277.968 71.6221C277.968 66.3732 277.968 61.3743 277.968 55.9222Z" fill="#F7F7F7"/>
<path d="M444.882 69.7417C441.414 70.7077 437.803 72.0938 434.486 71.5796C420.735 69.4472 412.126 58.8739 412.134 44.9721C412.141 33.2294 412.136 21.4867 412.136 9.50873C415.833 9.50873 419.1 9.50873 423.028 9.50873C423.028 12.8539 423.028 16.216 423.028 19.871C425.924 20.0321 428.188 20.1581 430.84 20.3057C430.84 23.4974 430.84 26.7143 430.84 30.2396C428.519 30.3947 426.105 30.556 422.571 30.7921C423.206 37.9917 422.81 45.2773 424.733 51.8889C426.532 58.0748 432.358 61.1724 439.059 61.5446C440.855 61.6443 442.66 61.5597 444.874 61.5597C444.874 64.3962 444.874 66.8421 444.882 69.7417Z" fill="#F6F6F6"/>
<path d="M222.138 30.9928C225.58 30.9903 228.542 30.9903 232.2 30.9903C232.2 44.5706 232.2 57.8596 232.2 71.502C228.06 71.502 224.202 71.502 219.834 71.502C219.834 58.5681 219.81 45.6613 219.911 32.7556C219.916 32.1643 221.049 31.5818 222.138 30.9928Z" fill="#FAFAFA"/>
<ellipse cx="70.7716" cy="66.6237" rx="5.77162" ry="5.62369" fill="#F4BB46"/>
<ellipse cx="147.772" cy="66.6237" rx="5.77162" ry="5.62369" fill="#D90A3D"/>
<ellipse cx="225.772" cy="21.6237" rx="5.77163" ry="5.62369" fill="#0C73BA"/>
</g>
<defs>
<clipPath id="clip0_77_178">
<rect width="460" height="92" fill="white"/>
</clipPath>
</defs>
</svg>
