<svg width="511" height="455" viewBox="0 0 511 455" fill="none" xmlns="http://www.w3.org/2000/svg">
<path d="M0 219.469C0.68587 218.179 1.53191 217.445 2.03263 216.524C6.62257 208.077 13.6097 203.954 23.2982 203.968C72.7811 204.038 122.264 203.988 171.747 204.04C173.812 204.043 176.1 204.174 177.899 205.043C183.353 207.677 187.154 205.37 190.208 201.226C199.13 189.12 208.701 177.394 216.534 164.609C229.96 142.694 242.314 120.12 254.948 97.7266C256.229 95.4565 256.857 92.5394 256.91 89.9047C257.127 79.2461 257.127 68.5786 256.96 57.9182C256.827 49.4986 256.141 41.0869 256.046 32.6678C255.912 20.8441 261.742 12.5719 271.931 6.98207C280.804 2.11466 290.329 -0.266874 300.336 0.0883624C312.353 0.514946 323.724 3.8536 332.938 11.7778C336.278 14.6503 338.215 19.4358 340.115 23.6533C348.417 42.0814 356.107 60.7122 360.373 80.6295C362.974 92.7744 363.593 104.66 361.168 116.942C358.562 130.136 357.036 143.542 354.984 156.847C354.328 161.099 353.5 165.325 352.674 170C355.184 170 356.989 170 358.794 170C397.114 170 435.445 169.468 473.75 170.22C493.511 170.607 507.297 182.455 511.626 201.877C512 208.688 512 215.375 511.624 222.656C509.638 233.306 504.494 241.561 498.624 248.141C499.886 253.618 501.066 258.242 502.007 262.913C505.011 277.832 499.613 290.565 491.083 302.203C488.999 305.046 488.909 307.067 489.907 310.157C491.329 314.56 492.613 319.169 492.886 323.753C493.709 337.572 488.601 349.615 480.805 360.731C480.001 361.877 479.163 363.728 479.537 364.857C483.087 375.585 482.954 386.538 480.865 397.335C478.477 409.677 471.938 419.638 461.545 427.138C449.288 435.984 435.183 438.768 420.77 438.845C354.478 439.197 288.183 438.864 221.889 439.118C209.025 439.167 197.893 435.034 187.146 428.689C184.567 427.166 181.554 426.379 178 424.957C178 427.908 178.071 429.389 177.989 430.861C177.223 444.674 167.896 454.165 154.006 454.089C109.867 453.849 65.7256 454.011 21.5851 453.987C15.6945 453.983 10.4792 451.979 6.34751 447.76C4.01853 445.382 2.10221 442.6 1.01328e-06 440C4.01328e-06 366.646 4e-06 293.292 0 219.469ZM482.45 197.968C478.019 196.312 473.599 193.25 469.156 193.217C422.826 192.865 376.492 193 330.16 193C328.452 193 326.743 193 325.239 193C327.914 177.776 330.544 163.309 332.974 148.809C334.824 137.772 335.862 126.567 338.301 115.669C340.391 106.329 340.888 97.0805 338.856 87.9487C334.273 67.3551 326.512 47.8319 317.35 28.8644C316.829 27.7849 315.961 26.5189 314.94 26.09C306.101 22.3779 296.809 21.5233 287.761 24.3685C284.235 25.4774 279.218 29.2309 278.983 32.1142C278.084 43.1455 278.77 54.3147 279.034 65.4284C279.171 71.1855 280.056 76.9456 279.889 82.6836C279.705 88.9934 280.105 95.8653 277.769 101.456C272.585 113.868 266.617 126.102 259.586 137.561C245.527 160.474 230.699 182.924 215.822 205.322C212.049 211.001 207.523 216.551 202.234 220.77C193.433 227.788 183.825 233.82 174.356 239.959C171.803 241.614 170.93 243.247 170.936 246.21C171.026 296.209 170.998 346.209 171.013 396.208C171.013 397.462 171.204 398.716 171.346 400.467C181.219 398.161 188.554 402.75 196.242 407.43C202.295 411.114 209.299 415.578 215.915 415.634C285.576 416.226 355.244 416.142 424.909 415.857C436.212 415.811 446.048 410.805 452.34 401.006C457.456 393.039 460.168 384.088 453.885 375.585C450.839 371.462 445.942 368.706 441.065 364.65C441.608 363.897 442.753 360.562 444.46 360.243C453.509 358.556 459.883 353.261 464.436 345.906C469.508 337.713 471.563 328.944 466.3 319.709C462.882 313.711 456.992 311.724 450.818 309.316C451.269 307.364 451.731 305.362 452.155 303.523C462.737 301.42 471.134 296.239 475.633 286.493C477.828 281.737 479.538 276.091 479.229 270.983C478.574 260.172 470.484 255.338 461.25 252.599C460.128 248.155 462.097 245.845 465.998 245.05C474.469 243.324 480.032 237.651 484.478 230.919C491.198 220.742 490.891 205.057 482.45 197.968ZM151 345.5C151 305.74 151 265.98 151 226.287C107.691 226.287 64.9551 226.287 22.2859 226.287C22.2859 294.642 22.2859 362.71 22.2859 430.713C65.3087 430.713 108.045 430.713 151 430.713C151 402.451 151 374.476 151 345.5Z" fill="#52289D"/>
</svg>
