<svg width="512" height="434" viewBox="0 0 512 434" fill="none" xmlns="http://www.w3.org/2000/svg">
<path d="M512 185.604C510.383 188.56 508.641 190.976 507.171 193.547C500.185 205.766 489.438 211.53 475.305 212.35C483.193 218.43 488.554 226.078 490.406 235.928C492.462 246.866 490.215 256.857 483.711 265.833C475.455 277.226 463.515 280.976 450.209 281.02C407.048 281.16 363.887 281.072 319.885 281.072C323.9 287.304 327.588 293.183 331.427 298.962C348.013 323.934 364.642 348.878 381.258 373.831C391.419 389.089 390.485 408.652 377.843 422.156C369.882 430.659 359.713 434.168 347.439 433.341C332.906 432.362 324.238 423.251 315.378 413.852C311.23 409.452 307.59 404.575 303.506 400.11C294.704 390.487 285.706 381.043 276.893 371.431C263.317 356.622 249.821 341.74 236.304 326.878C226.446 316.038 216.628 305.162 206.756 294.336C192.659 278.876 178.19 263.739 164.519 247.912C153.394 235.033 145.911 220.108 144.022 202.859C143.523 198.298 143.057 193.705 143.044 189.126C142.96 157.63 142.761 126.131 143.081 94.6377C143.307 72.4915 151.558 53.2442 165.412 36.0452C179.876 18.0906 198.965 7.91686 220.725 2.37549C227.93 0.540704 235.662 0.189184 243.156 0.166376C299.815 -0.00606044 356.476 -0.0426427 413.135 0.143365C429.759 0.197942 443.029 6.96169 450.031 22.7298C457.017 38.4622 452.65 57.4859 436.526 69.2328C457.05 67.5088 473.81 72.5565 481.814 92.2778C487.828 107.098 485.704 122.64 469.935 136.888C490.272 137.56 505.637 144.926 511.633 165.958C512 172.427 512 178.781 512 185.604Z" fill="#52289D"/>
<path d="M3.40554e-09 13.5408C1.25517 11.6517 2.57886 10.2855 3.75356 8.80134C8.68163 2.57511 15.4386 0.180394 23.0096 0.123246C42.9937 -0.0275983 62.9808 -0.0503656 82.9648 0.113205C97.4366 0.231655 106.192 9.75217 106.14 23.0703C105.85 97.8475 106 172.626 106 247.405C106 258.495 96.9497 267.949 85.7645 268.027C63.9482 268.18 42.129 268.206 20.3135 268.008C11.2753 267.926 5.23686 262.556 0.343054 255.152C-9.53674e-07 174.718 -9.96594e-07 94.3637 3.40554e-09 13.5408Z" fill="#52289D"/>
</svg>
