<svg width="38" height="43" viewBox="0 0 38 43" fill="none" xmlns="http://www.w3.org/2000/svg">
<path d="M29.545 6.62992C27.9215 4.79522 27.0268 2.43904 27.0275 0H19.6887V29.1528C19.6321 30.7304 18.9593 32.2248 17.8119 33.3211C16.6646 34.4174 15.1322 35.0302 13.5375 35.0304C10.165 35.0304 7.3625 32.3032 7.3625 28.9177C7.3625 24.874 11.305 21.8411 15.3663 23.0872V15.6579C7.1725 14.5764 0 20.8772 0 28.9177C0 36.7467 6.555 42.3186 13.5138 42.3186C20.9713 42.3186 27.0275 36.3235 27.0275 28.9177V14.1297C30.0034 16.2453 33.5762 17.3804 37.24 17.3742V10.1095C37.24 10.1095 32.775 10.321 29.545 6.62992Z" fill="white"/>
</svg>
