<svg width="410" height="252" viewBox="0 0 410 252" fill="none" xmlns="http://www.w3.org/2000/svg">
<g clip-path="url(#clip0_77_104)">
<path d="M35.3334 253C33.8468 245.596 35.2629 244.007 43.0243 244.007C144.299 244.007 245.574 244.006 346.849 244.009C354.55 244.009 355.398 244.905 354.842 252.586C260.312 253 165.625 253 70.1751 252.702C59.992 252.27 50.5714 252.092 41.1502 252.048C39.7683 252.041 38.3835 252.667 37 253C36.5556 253 36.1111 253 35.3334 253Z" fill="#0C73BA"/>
<path d="M124.5 99C124.5 99 120.713 90.9041 120.5 90.5C120.281 87.7457 115.505 89.8503 115.5 87.5C115 91 114.71 75.4172 114.579 69.3274C114.401 61.037 112.808 52.4683 114.398 44.5354C115.994 36.5756 120.397 28.9944 127.661 24.0082C141.036 14.8271 155.529 15.8485 169.085 26.9924C172.126 24.9772 175.018 22.5037 178.339 20.9503C198.638 11.4579 217.923 25.166 222.909 41.6906C223.188 42.6139 223.06 43.6706 223.061 44.6653C223.077 61.1873 223.192 77.7108 222.979 94.23C222.946 96.7623 221.595 101.331 220.51 101.436C216.099 101.867 211.536 101.045 207.084 100.339C206.534 100.251 206.022 98.0957 205.99 96.8852C205.853 91.7263 205.887 86.5623 205.887 81.4002C205.888 70.3689 205.922 59.3376 205.912 48.3063C205.907 41.9341 201.045 36.9629 194.909 35.953C180.897 33.6467 177.303 42.8184 177.118 52.761C176.862 66.4515 177.212 80.1534 176.964 93.8442C176.915 96.521 175.661 100.211 174.5 100.339C170.116 100.821 165.44 101.006 160.996 100.266C160.466 100.178 160.017 97.9939 159.989 96.7709C159.864 91.278 159.888 85.7813 159.888 80.286C159.888 69.7591 159.813 59.2309 159.954 48.7057C160.062 40.6106 154.907 35.6382 148.007 35.2043C140.576 34.7369 134.839 38.6475 132.578 46.206C130.515 53.1067 130.244 59.7777 130.5 66.5C130.75 73.0702 130.663 83.0842 130 90C120.255 84.7453 129 97.5 124.5 99Z" fill="black"/>
<path d="M232 88C231.963 73.6712 230.962 58.5139 232.493 44.3548C233.38 36.1563 238.996 28.7155 246.238 23.4337C257.674 15.0919 275.557 16.1643 286.225 26.42C291.975 23.8413 297.294 20.47 303.081 19.1534C308.274 17.9721 314.292 17.935 319.395 19.3633C330.09 22.3569 336.768 30.1903 340.246 40.6831C340.696 42.0388 341.012 43.5109 341.017 44.9306C341.081 61.4482 341.189 77.9676 340.96 94.4821C340.926 96.9583 341.115 100.912 340 101C335.587 101.347 329.453 101.699 325 101C325 101.794 324.113 98.5329 324.012 97.611C323.849 96.1268 323.889 94.6174 323.89 93.1186C323.894 78.2414 323.724 63.3608 324 48.4885C324.125 41.7344 317.284 35.5585 311.108 35.1382C303.278 34.6053 297.762 37.8647 296.296 45.5458C295.097 51.8331 295.258 58.7239 295.11 65.2308C295.051 67.8311 295.188 70.2155 295.135 72.8155C295.01 78.9795 294.96 85.1509 295.11 91.3137C295.44 104.845 292.333 101.782 282.484 101.878C279.808 101.904 277.516 100.262 277.903 96.7831C278.05 95.4683 277.887 94.1206 277.887 92.7879C277.895 78.0858 277.759 63.3814 277.98 48.6824C278.092 41.19 273.237 35.7817 265.984 35.1613C258.743 34.5419 250.993 39.178 250.19 46.1812C249.47 52.4603 250.028 58.8783 249.861 65.2308C249.678 72.16 249.661 80.0272 249 87.2943C243.079 83.061 237.259 84.8614 232 88Z" fill="black"/>
<path d="M111.671 87.0059C112.006 89.5249 112.011 91.8751 112.027 94.6687C110.526 95.7604 109.018 96.9588 107.5 96.9723C91.5215 97.1146 75.5039 97.7502 59.5725 96.8757C44.4827 96.0473 33.4264 87.8112 26.608 74.2615C18.2436 57.6397 24.4173 41.5722 32.6648 31.8375C44.4632 17.9116 62.1215 14.4689 77.9698 20.9409C87.3584 24.7749 94.8484 30.9639 98.9737 40.433C99.6601 42.0088 99.0515 44.816 98.0142 46.3673C91.2648 56.461 84.2228 66.3589 77.3023 76.3386C76.4056 77.6318 75.6566 79.0274 73.8895 81.9418C86.0436 81.9418 96.8986 82.0452 107.75 81.8875C111.714 81.8299 112.919 83.1705 111.671 87.0059ZM61.5546 67.84C67.7366 58.9249 73.9186 50.0098 80.0414 41.18C73.18 32.2796 59.6819 30.8442 51.5266 35.9988C41.8487 42.1157 37.5888 51.432 40.1732 62.7056C41.5817 68.8495 44.2266 74.7116 50.3655 77.8206C51.4742 78.3821 53.8444 78.492 54.3671 77.8226C56.7761 74.7371 58.7372 71.3021 61.5546 67.84Z" fill="black"/>
<path d="M181 229.053C170.348 228.412 159.856 229.175 150.121 226.816C133.77 222.853 123.641 207.005 122.753 190.69C122.133 179.295 126.942 170.159 133.637 162.284C140.526 154.182 150.491 149.566 161.17 149.575C176.846 149.587 189.494 156.353 197.777 170.22C201.325 176.159 196.269 179.689 193.784 183.591C187.85 192.906 181.331 201.847 175.089 210.967C174.582 211.708 174.386 212.66 173.873 213.948C186.047 213.948 197.792 213.948 209.798 213.948C209.798 219.005 209.798 223.742 209.798 229.053C200.349 229.053 190.924 229.053 181 229.053ZM164.885 195.307C169.916 187.779 174.948 180.25 179.96 172.75C172.258 164.989 163.49 163.585 154.83 166.786C145.313 170.303 139.71 177.302 139.13 187.524C138.538 197.965 144.012 206.682 153.09 210.706C156.859 205.812 160.668 200.867 164.885 195.307Z" fill="black"/>
<path d="M231.96 196.034C231.927 202.024 232.06 207.525 231.886 213.016C231.722 218.202 231.236 223.377 230.868 228.91C226.468 228.91 221.052 228.91 215.163 228.91C215.083 227.532 214.961 226.113 214.923 224.692C214.607 212.767 213.521 200.794 214.235 188.93C214.877 178.276 218.884 168.718 227.061 160.753C235.823 152.217 245.982 149.616 257.485 149.963C273.798 150.455 291.735 165.215 292.832 181.122C293.912 196.784 293.068 212.579 293.068 228.687C288.752 228.687 283.552 228.687 277.916 228.687C277.916 215.673 277.993 202.693 277.891 189.714C277.812 179.599 272.755 172.417 263.881 168.084C254.771 163.636 246.283 165.97 238.786 171.966C233.283 176.368 232.459 183.009 231.951 189.549C231.797 191.534 231.969 193.543 231.96 196.034Z" fill="black"/>
<path d="M64.3101 168.073C52.9366 173.988 49.7107 183.696 49.9954 195.424C50.2617 206.394 50.0523 217.375 50.0523 228.702C44.8348 228.702 39.7589 228.702 34.3595 228.702C34.2752 228.417 33.9475 227.825 33.9461 227.233C33.9134 213.417 33.6816 199.595 33.9881 185.786C34.2235 175.179 39.5201 167.078 47.2425 159.919C55.9802 151.818 66.1689 149.612 77.4815 149.926C93.022 150.359 110.988 165.812 111.837 180.036C112.801 196.163 112.06 212.392 112.06 228.818C107.607 228.818 102.533 228.818 96.9147 228.818C96.9147 225.645 96.9869 222.537 96.9013 219.433C96.6321 209.676 96.0311 199.92 96.0667 190.166C96.1117 177.852 90.969 169.781 78.9601 166.855C74.5646 165.784 69.4759 167.557 64.3101 168.073Z" fill="black"/>
<path d="M302.668 199.428C301.994 187.36 301.374 175.625 301.109 163.882C300.882 153.809 301.062 143.727 301.062 133.294C307.58 133.294 313.106 133.294 319.054 133.294C319.054 137.487 319.23 141.616 318.998 145.721C318.813 148.999 319.961 150.263 323.261 149.993C326.031 149.767 328.835 149.947 331.569 149.947C332.061 154.407 332.791 158.447 332.774 162.484C332.769 163.679 330.83 165.591 329.477 165.913C326.2 166.694 321.322 165.528 319.743 167.393C317.983 169.47 318.971 174.04 319.1 177.513C319.331 183.749 318.707 190.306 320.444 196.131C323.195 205.354 331.635 213.611 343.549 212.967C346.182 212.825 348.828 212.946 351.757 212.946C351.757 218.298 351.757 223.369 351.757 228.458C330.904 232.326 310.246 221.856 302.668 199.428Z" fill="black"/>
<path d="M215 108.004C238.651 108.004 261.802 108.026 284.953 107.976C287.879 107.969 290.103 107.989 290.099 112.037C290.095 116.157 287.736 116.018 284.883 116.017C203.271 115.991 121.66 115.99 40.0481 116.023C37.1247 116.024 34.8953 116.017 34.9015 111.966C34.9078 107.849 37.2625 107.981 40.1179 107.983C98.2453 108.011 156.373 108.004 215 108.004Z" fill="#F4BB46"/>
<path d="M350.917 91.9102C350.918 72.4452 350.918 53.4725 350.918 34.2222C356.939 34.2222 362.677 34.2222 368.736 34.2222C368.736 54.9868 368.736 75.8163 368.736 96.856C362.896 96.856 357.161 96.856 350.917 96.856C350.917 95.2839 350.917 93.8432 350.917 91.9102Z" fill="black"/>
<path d="M367.625 29.8527C362.731 33.1005 357.753 33.0849 353.279 30.5217C348.954 28.0438 347.37 23.7273 347.955 18.5724C348.576 13.0906 353.353 9.01969 359.727 9.00432C366.492 8.98801 371.535 12.9435 372.006 18.5325C372.373 22.8853 371.675 26.789 367.625 29.8527Z" fill="#0C73BA"/>
<path d="M350.577 115.996C340.997 115.996 331.875 115.95 322.753 116.023C319.824 116.046 317.162 115.595 317.101 112.093C317.036 108.445 319.451 106.992 322.92 107C332.043 107.02 341.165 107.007 350.287 107.008C353.53 107.009 356.133 108.537 355.725 111.773C355.526 113.352 352.682 114.598 350.577 115.996Z" fill="#D90A3D"/>
<path d="M112.925 95.3744C113.353 84.7039 120.925 81.0831 130.629 86.8005C134.512 92.2008 133.614 98.4816 128.943 101.031C123.042 104.251 115.983 101.911 112.925 95.3744Z" fill="#F4BB47"/>
<path d="M232.059 87.6683C237.428 84.1557 242.728 82.1181 248.61 86.8142C251.805 91.1759 251.796 96.4715 248.923 99.5435C246.393 102.249 239.037 103.092 235.613 101.069C230.797 98.2245 229.739 94.4605 232.059 87.6683Z" fill="#D90C3F"/>
</g>
<defs>
<clipPath id="clip0_77_104">
<rect width="410" height="252" fill="white"/>
</clipPath>
</defs>
</svg>
