<?xml version="1.0" encoding="UTF-8"?>
<svg id="Calque_1" data-name="Calque 1" xmlns="http://www.w3.org/2000/svg" viewBox="0 0 460 92">
  <defs>
    <style>
      .cls-1 {
        fill: #f6f6f6;
      }

      .cls-2 {
        fill: #0c73ba;
      }

      .cls-3 {
        fill: #d90a3d;
      }

      .cls-4 {
        fill: #f4bb46;
      }

      .cls-5 {
        fill: #f6f6f5;
      }

      .cls-6 {
        fill: #fafafa;
      }

      .cls-7 {
        fill: #f8f8f8;
      }

      .cls-8 {
        fill: #f7f7f7;
      }
    </style>
  </defs>
  <path class="cls-1" d="M142.53,65.35c-.14-8.3-.84-16.64-.26-24.88.51-7.31,4.01-13.59,10.74-17.38,7.12-4.02,14.51-4.47,21.31.29,2.8,1.95,4.31,2.15,7.19.31,13.85-8.84,30.61-.48,31.49,15.86.56,10.52.1,21.09.1,31.98h-10.99c0-10.02.05-20.11-.02-30.2-.04-6.83-2.93-9.53-9.75-9.4-4.42.09-7.87,3.91-7.77,8.35.12,5.31.09,10.62.11,15.93.01,5.07,0,10.13,0,15.43h-12.41c0-10.02.26-19.97-.16-29.89-.13-2.94-1.62-6.29-3.54-8.57-2.3-2.76-5.91-2.58-9.14-.9-3.59,1.87-5.92,4.65-5.94,8.91-.02,7.66,0,15.32-.33,23.25-3.96-2.68-7.35-1.72-10.64.9Z"/>
  <path class="cls-8" d="M65.24,65.15c-.07-8.49-.41-16.99-.12-25.47.28-8.18,4.84-13.85,12.02-17.45,6.99-3.51,13.85-2.79,20.14,1.56,2.35,1.63,3.91,1.66,6.17.11,7.04-4.83,14.48-5.18,21.88-.96,7.25,4.15,10.53,10.5,10.27,18.98-.29,9.74-.07,19.5-.07,29.6h-10.99c0-10.32-.04-20.74.02-31.16.02-4.16-1.89-7-5.67-8.41-6.54-2.44-12.33,2.04-12.42,9.64-.11,9.9-.03,19.8-.03,29.99h-11.69c0-9.85.03-19.79-.03-29.72-.01-1.79-.02-3.75-.71-5.34-1.69-3.89-4.85-5.91-9.17-5.29-4.92.71-8.71,4.93-8.82,9.92-.16,7.66-.04,15.32-.37,23.26-3.82-2.34-7.15-1.69-10.41.74Z"/>
  <path class="cls-7" d="M336,71.87c-7.1-.25-13.75-.12-20.3-.83-12.42-1.34-20.34-13.35-21.14-21.96-1.27-13.78,8.27-24.85,19.38-28.04,11.35-3.26,24.92,2.45,30.09,12.7.67,1.34.29,3.86-.57,5.22-3.63,5.7-7.64,11.17-11.5,16.73-1.1,1.59-2.14,3.22-3.73,5.6h24.19v10.59c-5.37,0-10.64,0-16.42,0ZM308.37,38.02c-4.78,9.27-1.64,19.12,7.35,22.06,5.55-8.06,11.16-16.22,16.73-24.31-7.26-7.9-19.24-5.39-24.08,2.25Z"/>
  <path class="cls-7" d="M51.83,30.2c1.48,2.22,2.78,4.14,3.87,5.75-5.73,8.23-11.34,16.3-17.63,25.34h24.64v9.74c-13.17,0-26.21,1.31-38.87-.35-14.13-1.85-22.12-18.83-17.31-33.14,4.64-13.81,20.62-21.33,33.75-15.44,4.12,1.85,7.6,5.15,11.55,8.1ZM18.65,37.35c-4.02,8.01-2.88,15.95,3.05,21.13,1.74,1.52,3.23,2.69,5.14-.16,5.1-7.63,10.45-15.08,15.63-22.5-7.83-7.54-15.45-7.09-23.82,1.53Z"/>
  <path class="cls-5" d="M380.19,31c-8.17-.1-14.18,8.33-14.04,16.04.14,8.11.03,16.23.03,24.59h-10.14c0-11.28-1.14-22.46.34-33.28,1.35-9.88,14.39-20.59,29.25-17.87,13.92,2.54,21.99,12.75,21.98,27.03,0,7.95,0,15.9,0,24.11h-10.95c0-8.23,0-16.35,0-24.48-.02-9.95-6.14-16.11-16.46-16.14Z"/>
  <path class="cls-8" d="M277.97,55.92c-.25-5.2-.03-10.03-.86-14.68-1.68-9.46-15.81-14.04-23.28-7.75-4.02,3.38-6.21,7.62-6.12,13.04.13,8.28.03,16.57.03,25.1h-10.25c0-10.82-1.31-21.9.34-32.52,1.91-12.33,16.12-20.77,28.35-18.94,13.24,1.98,22.81,12.82,22.83,25.91.01,8.45,0,16.89,0,25.53h-11.04v-15.7Z"/>
  <path class="cls-1" d="M444.88,69.74c-3.47.97-7.08,2.35-10.4,1.84-13.75-2.13-22.36-12.71-22.35-26.61,0-11.74,0-23.49,0-35.46h10.89v10.36c2.9.16,5.16.29,7.81.43v9.93c-2.32.16-4.73.32-8.27.55.63,7.2.24,14.49,2.16,21.1,1.8,6.19,7.62,9.28,14.33,9.66,1.8.1,3.6.02,5.82.02,0,2.84,0,5.28,0,8.18Z"/>
  <path class="cls-6" d="M222.14,30.99c3.44,0,6.4,0,10.06,0v40.51h-12.37c0-12.93-.02-25.84.08-38.75,0-.59,1.14-1.17,2.23-1.76Z"/>
  <ellipse class="cls-4" cx="70.77" cy="66.62" rx="5.77" ry="5.62"/>
  <ellipse class="cls-3" cx="147.77" cy="66.62" rx="5.77" ry="5.62"/>
  <ellipse class="cls-2" cx="225.77" cy="21.62" rx="5.77" ry="5.62"/>
  <path class="cls-4" d="M8.82,84h177.2c2.11,0,3.82,1.71,3.82,3.82h0c0,2.11-1.71,3.82-3.82,3.82H8.82c-2.11,0-3.82-1.71-3.82-3.82h0c0-2.11,1.71-3.82,3.82-3.82Z"/>
  <path class="cls-3" d="M216.82,84h25.8c2.11,0,3.82,1.71,3.82,3.82h0c0,2.11-1.71,3.82-3.82,3.82h-25.8c-2.11,0-3.82-1.71-3.82-3.82h0c0-2.11,1.71-3.82,3.82-3.82Z"/>
  <path class="cls-2" d="M273.82,84h177.2c2.11,0,3.82,1.71,3.82,3.82h0c0,2.11-1.71,3.82-3.82,3.82h-177.2c-2.11,0-3.82-1.71-3.82-3.82h0c0-2.11,1.71-3.82,3.82-3.82Z"/>
</svg>